<?xml version="1.0" encoding="UTF-8" standalone="no"?>
<svg
   width="1024"
   height="1024"
   viewBox="0 0 1024 1024"
   version="1.1"
   id="svg44"
   sodipodi:docname="Decanter.svg"
   inkscape:version="1.4.2 (ebf0e940d0, 2025-05-08)"
   xmlns:inkscape="http://www.inkscape.org/namespaces/inkscape"
   xmlns:sodipodi="http://sodipodi.sourceforge.net/DTD/sodipodi-0.dtd"
   xmlns="http://www.w3.org/2000/svg"
   xmlns:svg="http://www.w3.org/2000/svg">
  <sodipodi:namedview
     id="namedview44"
     pagecolor="#ffffff"
     bordercolor="#666666"
     borderopacity="1.0"
     inkscape:showpageshadow="2"
     inkscape:pageopacity="0.0"
     inkscape:pagecheckerboard="0"
     inkscape:deskcolor="#d1d1d1"
     inkscape:zoom="0.92675781"
     inkscape:cx="512"
     inkscape:cy="512"
     inkscape:window-width="1916"
     inkscape:window-height="2104"
     inkscape:window-x="0"
     inkscape:window-y="0"
     inkscape:window-maximized="0"
     inkscape:current-layer="svg44" />
  <path
     fill="#FDFDFD"
     d="M0 0L1024 0L1024 1024L0 1024L0 0Z"
     id="path1"
     style="fill:#fdfdfd;fill-opacity:0" />
  <path
     fill="#800020"
     d="M266.127 28.2513C290.149 27.8753 315.702 28.1963 339.832 28.2263L449.175 28.1254L769.71 28.0192C826.863 28.5182 881.519 51.5067 921.846 92.0079C947.64 117.797 965.397 150.517 972.962 186.199C978.783 214.608 977.082 246.81 977.075 276.128L977.071 387.986L977.115 802.418C976.773 850.074 955.234 898.652 921.264 931.976C887.362 964.955 843.395 985.635 796.373 990.719C782.883 992.193 770.753 991.984 757.25 991.85L259.75 991.881C199.352 992.401 146.769 974.53 103.216 931.549C77.8275 906.594 60.1623 874.856 52.3322 840.128C45.6574 810.005 47.3888 777.068 47.4334 746.075L47.463 648.937L47.0977 280.994L46.9854 240.658C46.9665 230.44 46.7574 220.264 47.5931 210.081C51.1347 165.394 70.5841 123.459 102.41 91.8904C136.413 57.5824 181.02 35.7826 228.981 30.0339C242.425 28.3554 252.565 28.2962 266.127 28.2513Z"
     id="path2" />
  <path
     fill="#FDFDFD"
     d="M307.757 69.0899C320.423 68.6415 335.206 66.7564 348.139 65.8882C371.047 64.1519 394.066 64.5268 416.904 67.0082C477.28 72.8567 534.846 95.3575 583.184 132.003C599.969 144.467 616.403 158.684 629.593 174.981C617.714 186.437 605.365 196.228 595.125 209.608C571.466 240.523 556.524 272.762 549.782 310.825C531.466 405.252 581.303 484.623 631.836 559.126C648.322 583.433 664.454 609.623 681.436 634.023C704.119 666.615 728.842 700.195 732.555 741.116C734.146 758.646 729.333 789.286 717.842 803.228C722.972 800.732 725.149 799.899 730.767 800.515C730.607 798.635 730.36 796.088 730.57 794.26C731.158 789.504 733.595 785.171 737.354 782.199C743.247 777.563 748.471 777.09 755.48 777.926C755.992 775.884 756.73 770.566 757.568 769.043C761.83 761.289 773.84 755.736 782.097 760.365C786.441 762.8 787.208 765.919 788.352 770.343C799.345 763.532 800.482 767.522 811.209 767.193C813.381 767.127 813.754 768.151 815.099 769.315C820.125 769.326 822.865 763.367 831.962 767.909C834.749 769.302 836.864 771.752 837.835 774.713C839.595 780.014 838.057 784.072 835.715 788.645C842.544 786.577 856.608 781.87 860.124 775.729C862.947 770.797 862.244 765.097 861.158 759.878C856.601 735.167 833.539 717.533 810.78 709.927C785.634 701.523 762.651 692.824 749.697 667.391C743.23 654.695 743.592 640.91 739.829 627.23C735.202 610.403 729.468 593.288 722.409 577.195C717.555 566.087 712.065 555.268 705.967 544.791C702.761 539.406 699.41 534.638 695.668 529.615C690.982 523.326 686.034 518.355 684.344 510.546C686.01 504.44 689.277 500.228 694.001 496.146C728.011 466.762 823.871 443.835 868.424 447.12C874.844 447.593 884.872 448.594 889.147 454.034C890.662 455.962 891.257 458.663 891.506 461.049C891.988 465.673 891.511 470.604 891.465 475.256C891.378 484.069 891.401 492.904 892.173 501.688C894.4 529.797 899.662 557.583 907.867 584.56C910.879 594.553 917.734 609.234 919.387 618.603C920.747 626.697 920.421 634.984 918.428 642.945C915.766 653.215 909.527 665.626 902.805 673.798C888.512 691.177 875.821 701.244 872.214 724.531C874.499 726.574 872.99 738.041 873.834 741.728C874.12 742.977 874.918 750.405 874.503 751.367L873.824 751.976C878.684 770.271 885.98 771.601 902.682 769.788C907.832 769.22 912.986 768.682 918.144 768.176C921.597 767.841 925.478 767.284 928.798 768.609C931.224 769.577 933.542 772.835 931.933 775.281C917.68 796.946 842.571 819.414 820.998 807.004C819.42 813.779 818.347 815.796 814.298 821.393C824.846 829.919 821.719 843.46 811.064 850.31C803.526 855.155 801.828 854.119 793.439 852.348C793.267 854.642 792.94 857.888 791.727 859.984C787.404 867.456 775.73 874.277 767.457 869.038C763.942 866.812 763.024 863.769 762.327 859.852C758.176 864.121 750.577 870.326 744.405 866.972C744.003 867.354 743.844 871.52 743.041 873.259C736.992 886.356 717.236 893.267 711.7 875.709C691.747 890.993 675.996 869.69 692.175 853.972C695.681 850.567 700.736 849.152 705.644 849.477L705.594 848.841C705.053 841.048 706.804 836.569 711.911 830.81C708.79 827.208 707.654 824.928 706.745 820.283C687.185 845.543 663.239 865.149 635.424 880.862C549.999 929.935 448.52 942.88 353.511 916.823C277.273 895.533 192.332 839.167 152.352 769.827C129.911 730.904 120.929 685.396 143.305 644.128C160.507 612.401 186.472 592.163 213.473 569.616L287.509 508.74C343.64 462.62 406.779 410.3 427.738 337.257C438.45 299.924 433.584 255.279 419.993 219.262C415.781 208.099 409.091 195.337 403.196 184.902C386.407 154.97 362.882 129.356 334.484 110.086C325.645 104.059 317.874 98.964 307.424 96.0623C307.874 87.0789 307.985 78.0817 307.757 69.0899Z"
     id="path3" />
  <path
     fill="#800020"
     d="M872.214 724.531C874.499 726.574 872.99 738.041 873.834 741.728C874.12 742.977 874.918 750.405 874.503 751.367L873.824 751.976C870.886 742.13 871.125 734.651 872.214 724.531Z"
     id="path4" />
  <path
     fill="#FDFDFD"
     d="M321.123 82.6484C340.3 81.4908 358.793 80.2352 378.001 80.0502C457.069 79.2885 532.869 105.118 592.317 157.82C597.928 162.794 603.689 168.985 609.365 173.652C560.19 220.156 534.393 276.051 532.091 344.165C529.362 424.899 563.469 478.842 605.262 544.368C625.495 575.882 646.088 607.162 667.039 638.203L689.25 670.726C696.061 680.817 704.981 692.987 708.746 704.666C713.574 713.306 718.326 734.248 718.819 743.998C721.991 806.726 659.766 853.115 609.494 878.077C529.561 917.767 430.85 927.321 345.82 898.87C273.217 874.432 196.976 824.948 161.328 754.847C146.727 725.746 139.726 696.31 150.486 664.542C158.646 632.75 203.028 596.572 227.716 576.455L303.483 514.882C373.213 457.945 445.871 393.206 448.909 296.426C450.221 254.63 436.56 212.394 415.44 176.672C400.535 151.461 373.676 120.399 350.341 102.687C344.991 98.6407 339.514 94.7655 333.917 91.0676C330.37 88.7698 324.05 85.2034 321.123 82.6484Z"
     id="path5" />
  <path
     fill="#800020"
     d="M150.486 664.542C151.838 665.299 150.678 664.485 151.932 665.704C154.535 668.237 159.652 667.935 163.066 668.201C164.032 668.253 165.42 667.963 166.37 667.689C162.49 674.745 158.946 683.372 161.87 691.274C171.662 717.732 211.39 741.728 234.777 753.965C327.069 802.255 440.737 819.953 543.907 815.999C578.7 814.924 614.174 810.951 647.579 800.735C666.107 795.068 694.082 784.127 703.699 766.22C714.294 746.493 704.18 725.935 696.812 707.491L696.365 704.474C699.004 704.002 704.653 703.422 706.736 702.353L708.746 704.666C713.574 713.306 718.326 734.248 718.819 743.998C721.991 806.726 659.766 853.115 609.494 878.077C529.561 917.767 430.85 927.321 345.82 898.87C273.217 874.432 196.976 824.948 161.328 754.847C146.727 725.746 139.726 696.31 150.486 664.542Z"
     id="path6" />
  <path
     fill="#FDFDFD"
     d="M217.8 750.067C220.013 750.785 225.959 754.38 228.457 755.795C233.918 758.954 239.482 761.93 245.141 764.718C270.777 777.098 303.612 790 331.401 796.093C332.934 802.927 333.842 809.547 335.758 816.35C343.383 843.427 355.041 864.846 372.862 886.396C341.907 880.533 315.895 874.123 289.007 856.4C252.191 831.719 226.602 793.508 217.8 750.067Z"
     id="path7" />
  <path
     fill="#800020"
     d="M321.123 82.6484C340.3 81.4908 358.793 80.2352 378.001 80.0502C457.069 79.2885 532.869 105.118 592.317 157.82C597.928 162.794 603.689 168.985 609.365 173.652C560.19 220.156 534.393 276.051 532.091 344.165C529.362 424.899 563.469 478.842 605.262 544.368C625.495 575.882 646.088 607.162 667.039 638.203L689.25 670.726C696.061 680.817 704.981 692.987 708.746 704.666L706.736 702.353C704.653 703.422 699.004 704.002 696.365 704.474L696.812 707.491C671.9 667.126 646.628 630.283 620.766 590.571C578.486 525.647 529.343 461.04 520.443 381.83C512.913 314.803 530.7 251.921 570.053 197.444C575.535 189.855 580.911 185.447 586.419 178.581C569.563 183.602 550.274 183.438 533.061 181.831C493.199 178.11 459.599 164.484 427.492 140.806C417.785 133.648 406.533 125.044 396.624 118.368C388.823 113.113 375.914 106.412 367.377 101.99C370.12 104.726 373.68 107.284 376.651 109.857C424.727 151.49 460.065 219.697 462.094 283.807C463.015 310.89 458.626 337.891 449.176 363.289C442.547 380.588 432.908 397.68 423.691 413.7C390.16 471.98 349.477 523.491 307.731 575.832L281.675 608.547C277.242 614.123 271.213 622.184 266.479 627.233C236.528 632.563 201.651 636.342 176.163 656.366C173.429 658.514 168.543 664.841 166.37 667.689C165.42 667.963 164.032 668.253 163.066 668.201C159.652 667.935 154.535 668.237 151.932 665.704C150.678 664.485 151.838 665.299 150.486 664.542C158.646 632.75 203.028 596.572 227.716 576.455L303.483 514.882C373.213 457.945 445.871 393.206 448.909 296.426C450.221 254.63 436.56 212.394 415.44 176.672C400.535 151.461 373.676 120.399 350.341 102.687C344.991 98.6407 339.514 94.7655 333.917 91.0676C330.37 88.7698 324.05 85.2034 321.123 82.6484Z"
     id="path8" />
  <path
     fill="#FDFDFD"
     d="M350.626 86.9566C358.699 87.2115 390.992 102.132 397.801 106.565C424.923 124.225 448.393 145.31 478.932 157.579C501.302 166.567 522.931 170.7 546.936 172.26C553.999 172.824 572.633 173.149 578.636 175.285C567.837 177.277 545.051 175.81 534.112 175.099C494.156 172.504 460.931 158.457 428.984 134.86C418.126 126.84 408.085 118.53 396.594 110.992C381.673 101.203 366.189 95.0917 350.626 86.9566Z"
     id="path9" />
  <path
     fill="#800020"
     d="M364.118 636.851C404.827 637.17 445.707 642.621 485.678 650.049C536.473 659.487 647.624 686.602 677.121 730.184C681.773 737.058 684.78 744.868 683.021 753.286C680.735 764.23 671.894 772.156 662.821 777.862C609.701 811.277 494.236 807.551 432.866 799.979C409.802 797.133 386.765 792.653 364.106 787.493C353.94 784.987 344.383 782.508 334.461 779.145C334.572 772.028 334.964 764.917 335.637 757.831C332.573 757.34 329.144 756.45 326.145 755.587C296.209 746.966 265.727 737.341 238.023 722.914C232.211 719.888 226.413 716.86 220.615 713.823C219.057 718.928 217.896 724.923 216.745 730.192C198.626 718.975 167.007 699.976 183.939 674.064C197.016 654.051 234.653 645.972 256.94 640.771C255.595 643.035 253.87 645.487 252.37 647.675C241.358 663.742 232.927 680.774 224.924 698.477C262.278 720.328 295.878 732.308 336.693 744.892C341.44 712.886 352.9 667.589 364.118 636.851Z"
     id="path10" />
  <path
     fill="#800020"
     d="M472.438 185.224C474.887 185.728 478.066 186.683 480.489 187.413C495.792 192.028 510.477 193.956 526.431 194.554C513.947 223.231 500.112 279.156 499.611 310.201C502.059 300.977 504.098 291.622 506.712 282.425C513.284 259.327 521.547 236.745 531.435 214.862C535.028 206.958 539.146 197.558 544.575 190.866C550.684 190.664 556.789 190.336 562.885 189.882C543.295 209.461 523.479 265.391 517.084 293.026C501.972 358.319 512.492 423.543 543.213 482.699C552.587 500.748 562.033 515.326 572.597 532.642C589.09 559.381 606.033 585.839 623.419 612.005C635.796 630.578 648.193 648.251 660.189 667.189C671.404 684.43 680.266 698.225 689.993 716.534C670.907 698.286 639.981 683.253 615.607 673.38C535.794 641.052 454.425 628.258 369.082 623.224C378.558 600.468 387.37 577.449 396.934 554.622C407.019 531.172 417.277 507.796 427.707 484.498C439.906 457.469 451.428 430.139 462.263 402.535C466.247 392.449 470.519 382.625 473.94 372.312C496.302 304.905 493.362 252.243 472.438 185.224Z"
     id="path11" />
  <path
     fill="#800020"
     d="M751.775 638.761C780.574 612.014 839.151 595.243 878.486 596.644C889.911 597.051 898.924 599.693 909.403 600.606C929.823 648.056 899.916 665.955 875.899 700.533C863.65 718.169 863.154 762.292 884.188 774.057C890.545 777.886 921.378 769.092 927.177 773.515C927.567 777.31 917.312 783.415 914.285 785.069C891.954 797.278 866.357 804.286 840.946 805.425C836.884 805.6 829.891 805.607 826.381 803.734L825.822 802.772C827.516 798.691 859.052 785.811 862.785 779.01C868.29 769.681 864.909 757.025 861.462 747.517C855.285 730.484 835.625 714.306 818.722 708.276C784.573 696.094 753.313 687.22 747.77 645.398C747.998 643.001 750.243 640.542 751.775 638.761Z"
     id="path12" />
  <path
     fill="#800020"
     d="M887.416 465.998C887.454 466.076 888.903 508.28 889.323 513.448C891.595 541.411 898.512 570.849 907.913 597.238C871.695 587.586 833.143 594.031 798.778 607.303C796.109 608.333 793.408 609.311 790.728 610.318C790.213 605.686 788.24 598.11 787.344 593.422C782.397 567.532 773.315 543.825 764.363 519.125C798.243 512.955 863.858 492.042 887.416 465.998Z"
     id="path13" />
  <path
     fill="#800020"
     d="M851.725 450.708C857.328 450.172 885.736 450.247 886.493 457.824C886.547 466.468 868.958 476.623 862.402 480.248C821.847 502.671 771.498 517.819 725.277 519.962C718.918 520.05 688.64 521.379 688.625 512.205C688.606 499.455 713.04 487.56 723.528 482.826C762.781 465.11 808.668 453.181 851.725 450.708Z"
     id="path14" />
  <path
     fill="#800020"
     d="M694.33 521.746L701.636 522.637C706.236 529.558 713.953 541.01 717.717 548.223C730.047 571.85 748.127 612.41 751.775 638.761C750.243 640.542 747.998 643.001 747.77 645.398C743.242 614.234 726.5 572.399 710.711 545.112C706.026 537.015 700.083 529.098 694.33 521.746Z"
     id="path15" />
  <path
     fill="#800020"
     d="M805.977 798.663C824.288 799.215 817.414 818.718 800.655 822.073C781.821 819.231 789.772 801.311 805.977 798.663Z"
     id="path16" />
  <path
     fill="#800020"
     d="M773.531 791.099C790.661 788.75 792.975 806.345 775.438 813.207C757.515 816.539 757.969 797.924 773.531 791.099Z"
     id="path17" />
  <path
     fill="#800020"
     d="M771.019 795.552C772.092 795.657 775.511 795.905 776.362 796.345C783.084 799.821 781.691 805.336 775.566 807.692C767.002 807.357 760.43 800.124 771.019 795.552Z"
     id="path18" />
  <defs
     id="defs19">
    <linearGradient
       id="gradient_0"
       gradientUnits="userSpaceOnUse"
       x1="810.13977"
       y1="842.86847"
       x2="797.10938"
       y2="829.8833">
      <stop
         offset="0"
         stop-color="#69031B"
         id="stop18" />
      <stop
         offset="1"
         stop-color="#92092D"
         id="stop19" />
    </linearGradient>
  </defs>
  <path
     fill="url(#gradient_0)"
     d="M804.367 825.607C823.141 824.326 818.015 842.511 803.774 848.362C786.087 850.156 788.15 830.022 804.367 825.607Z"
     id="path19" />
  <path
     fill="#800020"
     d="M777.309 818.6C795.974 817.178 790.57 837.595 774.673 840.973C761.134 840.911 759.606 830.503 769.183 822.466C771.497 820.524 774.463 819.612 777.309 818.6Z"
     id="path20" />
  <path
     fill="#800020"
     d="M748.17 810.594C767.425 808.526 762.26 826.569 748.482 833.288C730.92 836.722 732.636 816.044 748.17 810.594Z"
     id="path21" />
  <path
     fill="#800020"
     d="M747.14 816.143C750.015 815.865 753.229 815.032 755.284 817.253L755.221 818.451C753.391 821.565 749.85 824.272 747.076 826.762C745.009 827.936 743.324 828.91 740.953 828.333C736.389 824.071 742.219 817.618 747.14 816.143Z"
     id="path22" />
  <path
     fill="#800020"
     d="M737.829 788.097C743.655 781.398 757.06 777.353 759.921 789.789C760.3 791.438 757.73 796.886 756.519 798.187C752.273 803.814 743.67 808.373 737.733 802.482C733.662 798.205 734.841 792.589 737.829 788.097Z"
     id="path23" />
  <path
     fill="#800020"
     d="M740.93 788.561C745.463 785.8 753.688 783.727 754.812 790.999C752.142 794.984 744.122 800.563 739.034 799.006C738.726 798.639 738.142 797.987 737.9 797.613L738.257 793.065C739.05 791.598 740.062 790.004 740.93 788.561Z"
     id="path24" />
  <path
     fill="#800020"
     d="M737.829 788.097C739.149 790.969 738.244 789.638 738.257 793.065L737.9 797.613C738.208 799.603 738.596 800.666 737.733 802.482C733.662 798.205 734.841 792.589 737.829 788.097Z"
     id="path25" />
  <defs
     id="defs26">
    <linearGradient
       id="gradient_1"
       gradientUnits="userSpaceOnUse"
       x1="755.87341"
       y1="856.5993"
       x2="744.55511"
       y2="842.17224">
      <stop
         offset="0"
         stop-color="#6A061F"
         id="stop25" />
      <stop
         offset="1"
         stop-color="#97082C"
         id="stop26" />
    </linearGradient>
  </defs>
  <path
     fill="url(#gradient_1)"
     d="M753.296 838.159C769.89 839.045 763.322 857.916 747.841 861.552C732.304 860.51 735.478 841.557 753.296 838.159Z"
     id="path26" />
  <path
     fill="#800020"
     d="M699.959 854.4C704.266 853.331 705.429 852.98 709.793 854.599C717.201 860.862 714.309 870.499 706.869 874.239C689.69 882.877 682.211 863.694 699.959 854.4Z"
     id="path27" />
  <path
     fill="#800020"
     d="M702.14 856.672C703.36 856.571 706.315 856.416 707.38 856.222C712.32 861.108 706.454 864.838 702.985 868.845C688.734 871.44 691.315 858.133 702.14 856.672Z"
     id="path28" />
  <path
     fill="#800020"
     d="M699.959 854.4C704.266 853.331 705.429 852.98 709.793 854.599L707.357 855.456L707.269 856.087L707.38 856.222C706.315 856.416 703.36 856.571 702.14 856.672L699.959 854.4Z"
     id="path29" />
  <path
     fill="#800020"
     d="M824.445 770.553C839.759 769.777 838.477 789.559 821.595 793.42C819.346 793.596 816.41 793.123 814.393 792.09C812.711 791.24 811.491 789.69 811.059 787.856C809.034 779.526 817.019 772.581 824.445 770.553Z"
     id="path30" />
  <path
     fill="#800020"
     d="M822.928 776.541C825.578 776.366 826.748 776.371 828.305 778.602C828.723 782.843 824.85 786.477 821.344 788.207C811.777 787.764 813.598 778.764 822.928 776.541Z"
     id="path31" />
  <path
     fill="#800020"
     d="M723.507 804.582C744.012 802.229 736.318 821.435 723.809 827.255C706.586 830.505 709.776 810.515 723.507 804.582Z"
     id="path32" />
  <path
     fill="#800020"
     d="M727.907 806.957C729.783 806.92 730.461 807.073 731.777 808.399C732.654 813.353 724.392 820.643 720.171 822.688C717.573 822.331 716.513 821.922 715.476 819.456C715.669 813.717 722.949 808.642 727.907 806.957Z"
     id="path33" />
  <path
     fill="#800020"
     d="M797.873 770.57C800.777 770.373 803.236 770.257 805.874 771.733C807.568 772.661 808.815 774.233 809.333 776.094C811.646 784.38 803.972 790.569 796.742 792.491C779.797 794.188 782.113 774.906 797.873 770.57Z"
     id="path34" />
  <path
     fill="#800020"
     d="M723.364 833.531C738.664 832.165 738.593 850.856 722.032 855.575C703.653 855.821 707.319 838.807 723.364 833.531Z"
     id="path35" />
  <path
     fill="#800020"
     d="M720.575 839.036C723.568 838.806 725.989 838.169 728.328 839.967C730.524 844.41 724.456 847.623 721.28 849.554C718.574 849.709 716.001 850.393 713.998 848.336C712.637 843.785 717.12 840.928 720.575 839.036Z"
     id="path36" />
  <path
     fill="#800020"
     d="M774.479 763.135C790.471 762.547 786.51 782.064 770.948 785.577C754.042 785.742 758.407 765.764 774.479 763.135Z"
     id="path37" />
  <path
     fill="#800020"
     d="M724.332 860.691C726.328 859.559 731.713 857.703 733.83 858.732C751.682 867.406 725.05 892.522 716.045 875.92C714.78 869.059 717.849 863.275 724.332 860.691Z"
     id="path38" />
  <path
     fill="#800020"
     d="M716.045 875.92C714.78 869.059 717.849 863.275 724.332 860.691C723.217 863.377 721.848 862.127 720.676 864.758C724.089 862.571 729.564 859.273 733.232 862.31C734.911 866.939 727.144 874 723.227 875.444C721.905 875.931 719.576 876.144 718.148 876.283L717.614 876.765L716.045 875.92Z"
     id="path39" />
  <path
     fill="#800020"
     d="M716.045 875.92C714.78 869.059 717.849 863.275 724.332 860.691C723.217 863.377 721.848 862.127 720.676 864.758C717.815 869.273 716.597 870.866 718.148 876.283L717.614 876.765L716.045 875.92Z"
     id="path40" />
  <path
     fill="#800020"
     d="M766.549 853.964C769.791 846.758 774.208 844.616 781.93 843.536C805.086 853.414 770.231 878.906 765.717 857.983L766.549 853.964Z"
     id="path41" />
  <path
     fill="#800020"
     d="M769.767 854.959C773.034 848.504 777.212 848.048 783.737 847.808L784.979 849.284L784.759 849.823L785.521 850.387C781.586 849.104 781.19 855.384 776.549 856.635C773.424 857.477 770.48 858.388 767.759 855.838C768.015 855.722 769.437 855.052 769.767 854.959Z"
     id="path42" />
  <path
     fill="#800020"
     d="M783.737 847.808C785.962 848.345 785.195 848.055 786.969 850.031L787.106 851.036C782.503 854.058 780.703 861.555 776.08 861.253C770.808 860.909 772.638 856.101 765.717 857.983L766.549 853.964L769.767 854.959C769.437 855.052 768.015 855.722 767.759 855.838C770.48 858.388 773.424 857.477 776.549 856.635C781.19 855.384 781.586 849.104 785.521 850.387L784.759 849.823L784.979 849.284L783.737 847.808Z"
     id="path43" />
  <path
     fill="#F1DEE0"
     d="M830.082 794.534L830.653 794.676C827.304 799.273 821.989 795.395 821.639 801.421L821.589 802.406L820.487 803.382C819.883 801.906 818.887 800.034 819.109 798.567C819.863 797.865 826.187 796.582 830.082 794.534Z"
     id="path44" />
</svg>
